<svg width="51.956" height="55" viewBox="0 0 200 200" xmlns="http://www.w3.org/2000/svg"><title>Mushroom</title><path d="M100.13 199.433h-.61c-21.86 0-39.647-17.144-39.647-38.217V88.234H3.42c-1.854 0-3.366-1.43-3.4-3.218l-.006-.275C.007 84.4 0 84.06 0 83.72 0 37.555 44.782 0 99.825 0c55.044 0 99.825 37.555 99.825 83.718 0 .327-.007.652-.014.978l-.006.314c-.03 1.79-1.545 3.223-3.4 3.223h-56.454v72.982c0 21.074-17.786 38.218-39.647 38.218zM66.675 89.373v71.843c0 17.457 14.734 31.66 32.845 31.66h.61c18.11 0 32.844-14.203 32.844-31.66V89.374H66.676zm-59.84-7.696h185.98c-1.31-41.607-42.52-75.12-92.99-75.12-50.47 0-91.68 33.513-92.99 75.12zM38.153 44.65c-.71 0-1.428-.215-2.04-.66-1.502-1.086-1.805-3.14-.677-4.59 9.992-12.824 33.457-21.494 34.45-21.856 1.755-.642 3.72.21 4.385 1.904.666 1.692-.218 3.585-1.974 4.227-.225.082-22.62 8.366-31.42 19.663-.67.858-1.692 1.31-2.724 1.31z" fill="#9B9B9B" fill-rule="evenodd"/></svg>