<svg width="111" height="50" viewBox="0 0 111 98" xmlns="http://www.w3.org/2000/svg"><title>Imported Layers</title><g fill="#9B9B9B" fill-rule="evenodd"><path d="M94.213 50.33c-8.986 0-16.3-8.797-16.3-19.615 0-10.818 7.314-19.62 16.3-19.62 8.987 0 16.3 8.802 16.3 19.62 0 10.818-7.313 19.616-16.3 19.616zm0-35.11c-6.713 0-12.175 6.952-12.175 15.495 0 8.54 5.462 15.49 12.175 15.49 6.714 0 12.175-6.95 12.175-15.49 0-8.543-5.46-15.494-12.175-15.494z"/><path d="M94.213 97.72c-1.14 0-2.062-.92-2.062-2.06V48.27c0-1.14.923-2.064 2.063-2.064 1.14 0 2.063.924 2.063 2.063v47.39c0 1.14-.922 2.06-2.063 2.06M55.393 50.33c-8.99 0-16.298-8.797-16.298-19.615 0-10.818 7.31-19.62 16.298-19.62 8.986 0 16.3 8.802 16.3 19.62 0 10.818-7.314 19.616-16.3 19.616zm0-35.11c-6.714 0-12.175 6.952-12.175 15.495 0 8.54 5.46 15.49 12.175 15.49 6.713 0 12.175-6.95 12.175-15.49 0-8.543-5.462-15.494-12.175-15.494z"/><path d="M55.393 97.72c-1.14 0-2.063-.92-2.063-2.06V48.27c0-1.14.922-2.064 2.063-2.064 1.14 0 2.062.924 2.062 2.063v47.39c0 1.14-.922 2.06-2.062 2.06M67.87 32.775c2.037 1.96 4.186 2.974 6.933 2.974 2.263 0 4.383-.79 6.2-2.164l1.563 3.916c-2.31 1.512-4.954 2.372-7.763 2.372-3.038 0-5.466-.905-7.9-2.652M59.23 15.566C60.888 6.847 67.066.64 74.804.64c7.737 0 14.233 6.52 15.89 15.237l-4.156.235c-1.43-6.536-6.15-11.346-11.734-11.346-6.208 0-11.158 5.57-11.898 13.217l-3.674-2.417"/><path d="M74.803 87.264c-1.14 0-2.062-.922-2.062-2.06V37.812c0-1.14.922-2.063 2.063-2.063 1.14 0 2.063.92 2.063 2.062v47.392c0 1.138-.922 2.06-2.063 2.06M16.573 50.33c-8.99 0-16.3-8.797-16.3-19.615 0-10.818 7.31-19.62 16.3-19.62 8.986 0 16.3 8.802 16.3 19.62 0 10.818-7.314 19.616-16.3 19.616zm0-35.11c-6.714 0-12.175 6.952-12.175 15.495 0 8.54 5.46 15.49 12.175 15.49 6.71 0 12.174-6.95 12.174-15.49 0-8.543-5.463-15.494-12.174-15.494z"/><path d="M16.573 97.72c-1.14 0-2.065-.92-2.065-2.06V48.27c0-1.14.924-2.064 2.065-2.064 1.138 0 2.062.924 2.062 2.063v47.39c0 1.14-.924 2.06-2.063 2.06M29.047 32.775c2.04 1.96 4.188 2.974 6.936 2.974 2.262 0 4.383-.79 6.2-2.164l1.56 3.916c-2.307 1.512-4.95 2.372-7.76 2.372-3.038 0-5.466-.905-7.902-2.652m-7.67-21.656C22.068 6.847 28.245.64 35.984.64c7.736 0 14.23 6.52 15.89 15.237l-4.16.235C46.288 9.576 41.57 4.766 35.984 4.766c-6.208 0-11.158 5.57-11.9 13.217l-3.672-2.417"/><path d="M35.983 87.264c-1.14 0-2.063-.922-2.063-2.06V37.812c0-1.14.922-2.063 2.063-2.063 1.138 0 2.062.92 2.062 2.062v47.392c0 1.138-.924 2.06-2.062 2.06"/></g></svg>