<svg width="54.219" height="55" viewBox="0 0 196 196" xmlns="http://www.w3.org/2000/svg"><title>Thin Crust</title><g fill="#DA3939" fill-rule="evenodd"><path d="M191.75 195.917c-.417 0-1.25 0-1.667-.417-77.5-34.167-143.75-59.167-187.083-70.417-2.083-.416-3.333-2.5-2.917-4.583C8.833 58.417 58.417 9.25 120.5.083c2.083-.416 4.167.834 4.583 2.917 11.25 42.917 36.25 109.583 70.417 187.083.833 1.667.417 3.334-.833 4.584-.834.833-1.667 1.25-2.917 1.25zM8.833 118c41.667 11.25 103.334 34.583 174.584 65.833-31.25-71.666-54.167-132.916-65.834-174.583-55 9.167-99.166 53.333-108.75 108.75z"/><path d="M33 131.333h-1.25c-2.083-.833-3.333-2.916-2.917-5 13.334-46.666 49.584-82.916 96.25-96.666 2.084-.834 4.584.416 5 2.916.834 2.084-.416 4.584-2.916 5-43.334 12.5-77.084 46.667-90 90.417-.417 2.083-2.084 3.333-4.167 3.333z"/><path d="M113 108.417c-12.5 0-22.917-10.417-22.917-22.917C90.083 73 100.5 62.583 113 62.583c12.5 0 22.917 10.417 22.917 22.917 0 12.5-10.417 22.917-22.917 22.917zm0-37.5c-7.917 0-14.583 6.666-14.583 14.583s6.666 14.583 14.583 14.583 14.583-6.666 14.583-14.583c0-8.333-6.666-14.583-14.583-14.583zM73.833 131.333c-8.75 0-15.416-7.083-15.416-15.416 0-8.75 7.083-15.417 15.416-15.417 8.334 0 15.417 7.083 15.417 15.417 0 8.333-7.083 15.416-15.417 15.416zm0-22.916c-4.166 0-7.083 3.333-7.083 7.083s3.333 7.083 7.083 7.083 7.084-3.333 7.084-7.083-3.334-7.083-7.084-7.083zM128.833 148c-9.166 0-17.083-7.5-17.083-17.083 0-9.167 7.5-17.084 17.083-17.084 9.167 0 17.084 7.5 17.084 17.084C145.917 140.5 138 148 128.833 148zm0-25.417c-4.583 0-8.75 3.75-8.75 8.75 0 4.584 3.75 8.75 8.75 8.75 4.584 0 8.75-3.75 8.75-8.75s-4.166-8.75-8.75-8.75z"/></g></svg>