<?xml version="1.0" encoding="utf-8"?>
<!-- Generator: Adobe Illustrator 16.0.0, SVG Export Plug-In . SVG Version: 6.00 Build 0)  -->
<!DOCTYPE svg PUBLIC "-//W3C//DTD SVG 1.1//EN" "http://www.w3.org/Graphics/SVG/1.1/DTD/svg11.dtd">
<svg version="1.1" id="Layer_1" xmlns="http://www.w3.org/2000/svg" xmlns:xlink="http://www.w3.org/1999/xlink" x="0px" y="0px"
	 width="21px" height="39.821px" viewBox="0 0 21 39.821" enable-background="new 0 0 21 39.821" xml:space="preserve">
<g>
	<path fill="#363637" d="M17.16,1.067H3.839c-1.791,0-3.243,1.22-3.243,3.012v31.894c0,1.793,1.452,2.781,3.243,2.781H17.16
		c1.792,0,3.244-0.988,3.244-2.781V4.079C20.404,2.287,18.952,1.067,17.16,1.067z M8.357,3.519h3.919
		c0.245,0,0.442,0.199,0.442,0.444s-0.197,0.444-0.442,0.444H8.357c-0.245,0-0.446-0.199-0.446-0.444S8.112,3.519,8.357,3.519z
		 M5.702,3.432c0.294,0,0.53,0.237,0.53,0.531c0,0.293-0.236,0.531-0.53,0.531c-0.293,0-0.53-0.238-0.53-0.531
		C5.172,3.669,5.409,3.432,5.702,3.432z M11.717,36.771H8.911c-0.45,0-0.814-0.365-0.814-0.814s0.364-0.813,0.814-0.813h2.806
		c0.448,0,0.813,0.363,0.813,0.813S12.165,36.771,11.717,36.771z M19.545,33.348H1.454V6.473h18.091V33.348z"/>
	<path fill="#363637" d="M13.998,14.445c-0.393-0.386-0.863-0.687-1.408-0.9c-0.545-0.214-1.156-0.321-1.83-0.321l-4.349,0.021
		c-0.18,0-0.331,0.062-0.455,0.187c-0.124,0.124-0.187,0.276-0.187,0.455v12.069c0,0.18,0.063,0.33,0.187,0.455
		s0.275,0.186,0.455,0.186h4.368c0.676,0,1.285-0.105,1.833-0.32c0.543-0.213,1.01-0.514,1.396-0.9
		c0.387-0.387,0.687-0.852,0.901-1.395c0.213-0.547,0.321-1.15,0.321-1.812v-4.514c0-0.663-0.108-1.267-0.321-1.812
		C14.694,15.298,14.391,14.832,13.998,14.445z M13.945,22.168c0,0.979-0.277,1.748-0.837,2.308
		c-0.559,0.559-1.335,0.838-2.329,0.838H7.053V14.508h3.707c1.02,0,1.806,0.279,2.359,0.838c0.551,0.558,0.826,1.328,0.826,2.309
		V22.168z"/>
</g>
</svg>
