<?xml version="1.0" encoding="utf-8"?>
<!-- Generator: Adobe Illustrator 16.0.0, SVG Export Plug-In . SVG Version: 6.00 Build 0)  -->
<!DOCTYPE svg PUBLIC "-//W3C//DTD SVG 1.1//EN" "http://www.w3.org/Graphics/SVG/1.1/DTD/svg11.dtd">
<svg version="1.1" id="Layer_1" xmlns="http://www.w3.org/2000/svg" xmlns:xlink="http://www.w3.org/1999/xlink" x="0px" y="0px"
	 width="20px" height="20px" viewBox="0 0 20 20" enable-background="new 0 0 20 20" xml:space="preserve">
<title>6F387DAC-29C3-4F40-A7FF-3B73F20E7B0F</title>
<desc>Created with sketchtool.</desc>
<g id="Page-1">
	<g id="Assets_Icons" transform="translate(-34.000000, -34.000000)">
		<path id="icon_filter_btn_gold" fill="#D71F26" d="M35,37.066h9.067v1.6H35V37.066L35,37.066z M49.934,37.066h3.199v1.6h-3.199
			V37.066L49.934,37.066z M35,42.934h3.2v1.6H35V42.934L35,42.934z M44.067,42.934h9.066v1.6h-9.066V42.934L44.067,42.934z
			 M49.934,49.334h3.199v1.6h-3.199V49.334L49.934,49.334z M35,49.334h9.067v1.6H35V49.334L35,49.334z M47,52
			c1.031,0,1.867-0.836,1.867-1.867c0-1.03-0.836-1.866-1.867-1.866s-1.867,0.836-1.867,1.866C45.133,51.164,45.969,52,47,52L47,52z
			 M41.133,45.6c1.031,0,1.867-0.836,1.867-1.866c0-1.031-0.836-1.867-1.867-1.867s-1.867,0.835-1.867,1.867
			C39.267,44.764,40.103,45.6,41.133,45.6L41.133,45.6z M47,39.733c1.031,0,1.867-0.836,1.867-1.867S48.031,36,47,36
			s-1.867,0.836-1.867,1.867S45.969,39.733,47,39.733L47,39.733z"/>
	</g>
</g>
</svg>
