<?xml version="1.0" encoding="utf-8"?>
<!-- Generator: Adobe Illustrator 16.0.0, SVG Export Plug-In . SVG Version: 6.00 Build 0)  -->
<!DOCTYPE svg PUBLIC "-//W3C//DTD SVG 1.1//EN" "http://www.w3.org/Graphics/SVG/1.1/DTD/svg11.dtd">
<svg version="1.1" id="Layer_1" xmlns:sketch="http://www.bohemiancoding.com/sketch/ns"
	 xmlns="http://www.w3.org/2000/svg" xmlns:xlink="http://www.w3.org/1999/xlink" x="0px" y="0px" width="40px" height="40px"
	 viewBox="0 0 40 40" enable-background="new 0 0 40 40" xml:space="preserve">
<title>Oval 61 + Menu Icon Copy 2</title>
<desc>Created with Sketch.</desc>
<g id="Oval-61-_x2B_-Menu-Icon-Copy-2" transform="translate(85.000000, 33.000000)">
	<circle id="Oval-61" fill="#D71F26" cx="-65" cy="-13" r="20"/>
	<path id="Imported-Layers-Copy-8" fill="#FFFFFF" d="M-61.018-5.201l0.011-0.001l-2.728-15.431l1.979-1.667l-0.004-0.005
		c0.118-0.104,0.196-0.252,0.196-0.423c0,0,0-2.273-3.938-2.273s-3.938,2.273-3.938,2.273c0,0.171,0.078,0.318,0.196,0.423
		l-0.004,0.005l1.98,1.667l-2.728,15.431l0.011,0.001C-69.987-5.172-70-5.145-70-5.113c0,0.156,0.063,0.299,0.165,0.401l3.938,4.546
		C-65.796-0.064-65.655,0-65.5,0s0.296-0.064,0.397-0.166l3.938-4.546C-61.063-4.814-61-4.957-61-5.113
		C-61-5.145-61.013-5.172-61.018-5.201L-61.018-5.201z M-68.197-22.896c0.257-0.316,0.991-0.968,2.697-0.968
		c1.705,0,2.439,0.652,2.697,0.968l-2.697,2.27L-68.197-22.896L-68.197-22.896z M-65.5-1.43l-3.337-3.852l2.566-14.514l0.4,0.337
		l0.004-0.004c0.099,0.087,0.225,0.145,0.366,0.145s0.268-0.058,0.366-0.145l0.004,0.004l0.4-0.337l2.566,14.514L-65.5-1.43
		L-65.5-1.43z"/>
</g>
</svg>
