<?xml version="1.0" encoding="utf-8"?>
<!-- Generator: Adobe Illustrator 16.0.0, SVG Export Plug-In . SVG Version: 6.00 Build 0)  -->
<!DOCTYPE svg PUBLIC "-//W3C//DTD SVG 1.1//EN" "http://www.w3.org/Graphics/SVG/1.1/DTD/svg11.dtd">
<svg version="1.1" id="Layer_1" xmlns="http://www.w3.org/2000/svg" xmlns:xlink="http://www.w3.org/1999/xlink" x="0px" y="0px"
	 width="20px" height="20px" viewBox="0 0 20 20" enable-background="new 0 0 20 20" xml:space="preserve">
<title>39037B15-B42B-4DC9-8EE1-3DC0D3DDC0E8</title>
<desc>Created with sketchtool.</desc>
<path fill="#D71F26" d="M18.265,17.384l-4.703-4.622c1.104-1.236,1.708-2.805,1.708-4.465c-0.001-1.801-0.712-3.494-2.005-4.768
	c-1.295-1.273-3.016-1.974-4.847-1.974c-1.829,0-3.553,0.701-4.854,1.974C2.269,4.805,1.556,6.502,1.556,8.307
	c0,1.805,0.713,3.501,2.008,4.778c1.294,1.269,3.014,1.968,4.843,1.968c1.546,0,3.037-0.509,4.242-1.441l4.73,4.656
	c0.118,0.114,0.275,0.177,0.442,0.177c0.166,0,0.32-0.062,0.414-0.155c0.127-0.11,0.203-0.273,0.208-0.447
	C18.449,17.667,18.383,17.499,18.265,17.384z M8.417,2.797c1.502,0,2.911,0.574,3.966,1.618c1.058,1.041,1.641,2.421,1.641,3.889
	c0,1.467-0.583,2.848-1.641,3.888c-1.061,1.042-2.469,1.616-3.966,1.616c-1.498,0-2.907-0.574-3.967-1.616
	C3.393,11.152,2.81,9.771,2.81,8.304c0-1.468,0.583-2.849,1.642-3.89C5.506,3.372,6.915,2.797,8.417,2.797z"/>
</svg>
