<?xml version="1.0" encoding="utf-8"?>
<!-- Generator: Adobe Illustrator 16.0.0, SVG Export Plug-In . SVG Version: 6.00 Build 0)  -->
<!DOCTYPE svg PUBLIC "-//W3C//DTD SVG 1.1//EN" "http://www.w3.org/Graphics/SVG/1.1/DTD/svg11.dtd">
<svg version="1.1" id="Layer_1" xmlns:sketch="http://www.bohemiancoding.com/sketch/ns"
	 xmlns="http://www.w3.org/2000/svg" xmlns:xlink="http://www.w3.org/1999/xlink" x="0px" y="0px" width="40px" height="32.25px"
	 viewBox="0 7.75 40 32.25" enable-background="new 0 7.75 40 32.25" xml:space="preserve">
<title>Oval 61 + Menu Icon Copy 2</title>
<desc>Created with Sketch.</desc>
<g>
	<path fill-rule="evenodd" clip-rule="evenodd" fill="#D71F26" d="M31.984,24.311c0-0.95,0-1.787,0-2.659c0.506,0,0.986,0,1.536,0
		c0,0.123,0,0.267,0,0.408c0,1.071,0.009,2.144-0.006,3.216c-0.005,0.284,0.086,0.473,0.299,0.659
		c1.788,1.561,3.567,3.133,5.348,4.701c0.11,0.097,0.215,0.199,0.348,0.323c-0.339,0.39-0.656,0.755-0.995,1.146
		c-0.401-0.348-0.785-0.681-1.231-1.067c0,2.779,0,5.47,0,8.196c-9.987,0-19.938,0-29.944,0c0-1.667,0-3.351,0-5.012
		c-0.606,0.257-1.178,0.484-1.731,0.749c-0.097,0.047-0.163,0.257-0.164,0.392c-0.013,1.181-0.007,2.362-0.007,3.541
		c0,0.149,0,0.298,0,0.479c-0.502,0-0.983,0-1.528,0c0-0.135,0-0.277,0-0.42c0-1.152-0.016-2.308,0.009-3.46
		c0.007-0.368-0.086-0.53-0.461-0.641c-1.789-0.53-3.001-2.222-2.964-4.073c0.039-1.887,1.313-3.524,3.129-3.995
		c1.162-0.3,2.257-0.118,3.274,0.523c0.115,0.071,0.23,0.142,0.347,0.21c0.007,0.005,0.024-0.008,0.07-0.025
		c0-6.357,0-12.727,0-19.135c5.68,0,11.326,0,17.033,0c0,4.564,0,9.126,0,13.682c0.807-0.795,1.59-1.566,2.391-2.355
		C28.507,21.251,30.203,22.743,31.984,24.311z M8.887,9.874c0,9.295,0,18.563,0,27.832c1.734,0,3.435,0,5.197,0
		c0-1.771,0-3.509,0-5.234c1.207,0,2.353,0,3.543,0c0,1.762,0,3.491,0,5.24c1.747,0,3.448,0,5.164,0c0-9.294,0-18.562,0-27.838
		C18.138,9.874,13.52,9.874,8.887,9.874z M35.709,37.715c0.01-0.122,0.025-0.214,0.025-0.306c0.001-2.481,0.006-4.964-0.011-7.445
		c-0.002-0.182-0.13-0.411-0.271-0.536c-2.597-2.305-5.204-4.597-7.809-6.892c-0.251-0.22-0.506-0.436-0.729-0.628
		c-0.774,0.75-1.507,1.473-2.255,2.178c-0.226,0.213-0.308,0.442-0.307,0.751c0.008,4.136,0.005,8.273,0.006,12.409
		c0,0.156,0.021,0.311,0.03,0.461c1.317,0,2.585,0,3.896,0c0-1.762,0-3.492,0-5.235c1.2,0,2.355,0,3.559,0c0,1.762,0,3.492,0,5.243
		C33.146,37.715,34.402,37.715,35.709,37.715z M4.674,33.516c1.471,0.002,2.654-1.188,2.651-2.664
		c-0.003-1.452-1.188-2.649-2.627-2.658c-1.46-0.008-2.668,1.19-2.677,2.654C2.013,32.313,3.208,33.515,4.674,33.516z"/>
	<path fill-rule="evenodd" clip-rule="evenodd" fill="#FFFFFF" d="M8.887,9.874c4.633,0,9.251,0,13.904,0c0,9.276,0,18.544,0,27.838
		c-1.716,0-3.417,0-5.164,0c0-1.749,0-3.479,0-5.24c-1.19,0-2.336,0-3.543,0c0,1.726,0,3.464,0,5.234c-1.762,0-3.463,0-5.197,0
		C8.887,28.437,8.887,19.169,8.887,9.874z M17.443,27.582c0.792,0,1.542,0,2.291,0c0-1.038,0-2.047,0-3.073
		c-0.773,0-1.522,0-2.291,0C17.443,25.543,17.443,26.551,17.443,27.582z M14.294,27.589c0-1.039,0-2.056,0-3.072
		c-0.789,0-1.539,0-2.292,0c0,1.041,0,2.049,0,3.072C12.778,27.589,13.528,27.589,14.294,27.589z M19.741,18.665
		c-0.777,0-1.537,0-2.285,0c0,1.051,0,2.06,0,3.055c0.784,0,1.536,0,2.285,0C19.741,20.686,19.741,19.684,19.741,18.665z
		 M14.306,21.731c0-1.029,0-2.037,0-3.069c-0.777,0-1.538,0-2.303,0c0,1.042,0,2.05,0,3.069
		C12.778,21.731,13.529,21.731,14.306,21.731z M17.448,12.805c0,1.057,0,2.055,0,3.063c0.775,0,1.526,0,2.278,0
		c0-1.034,0-2.043,0-3.063C18.954,12.805,18.214,12.805,17.448,12.805z M14.33,15.871c0-0.975,0.006-1.907-0.011-2.839
		c-0.001-0.085-0.146-0.237-0.229-0.239c-0.622-0.021-1.244-0.021-1.866-0.001c-0.084,0.002-0.234,0.147-0.235,0.229
		c-0.017,0.943-0.011,1.887-0.011,2.851C12.771,15.871,13.521,15.871,14.33,15.871z"/>
	<path fill-rule="evenodd" clip-rule="evenodd" fill="#FFFFFF" d="M35.709,37.715c-1.307,0-2.563,0-3.865,0c0-1.751,0-3.481,0-5.243
		c-1.203,0-2.358,0-3.559,0c0,1.743,0,3.474,0,5.235c-1.312,0-2.579,0-3.896,0c-0.01-0.15-0.03-0.305-0.03-0.461
		c-0.001-4.136,0.002-8.273-0.006-12.409c-0.001-0.309,0.081-0.538,0.307-0.751c0.748-0.705,1.48-1.428,2.255-2.178
		c0.224,0.192,0.479,0.408,0.729,0.628c2.604,2.295,5.212,4.587,7.809,6.892c0.142,0.125,0.27,0.354,0.271,0.536
		c0.017,2.481,0.012,4.964,0.011,7.445C35.734,37.501,35.719,37.593,35.709,37.715z"/>
	<path fill-rule="evenodd" clip-rule="evenodd" fill="#FFFFFF" d="M4.674,33.516c-1.466-0.001-2.661-1.202-2.652-2.668
		c0.008-1.464,1.217-2.662,2.677-2.654c1.439,0.009,2.624,1.206,2.627,2.658C7.328,32.328,6.145,33.518,4.674,33.516z"/>
	<path fill-rule="evenodd" clip-rule="evenodd" fill="#D71F26" d="M17.443,27.582c0-1.031,0-2.039,0-3.073c0.769,0,1.518,0,2.291,0
		c0,1.026,0,2.035,0,3.073C18.985,27.582,18.236,27.582,17.443,27.582z"/>
	<path fill-rule="evenodd" clip-rule="evenodd" fill="#D71F26" d="M14.294,27.589c-0.766,0-1.516,0-2.292,0c0-1.023,0-2.031,0-3.072
		c0.753,0,1.503,0,2.292,0C14.294,25.533,14.294,26.55,14.294,27.589z"/>
	<path fill-rule="evenodd" clip-rule="evenodd" fill="#D71F26" d="M19.741,18.665c0,1.019,0,2.021,0,3.055c-0.75,0-1.501,0-2.285,0
		c0-0.995,0-2.004,0-3.055C18.204,18.665,18.964,18.665,19.741,18.665z"/>
	<path fill-rule="evenodd" clip-rule="evenodd" fill="#D71F26" d="M14.306,21.731c-0.777,0-1.527,0-2.303,0c0-1.02,0-2.027,0-3.069
		c0.765,0,1.526,0,2.303,0C14.306,19.694,14.306,20.702,14.306,21.731z"/>
	<path fill-rule="evenodd" clip-rule="evenodd" fill="#D71F26" d="M17.448,12.805c0.766,0,1.506,0,2.278,0c0,1.02,0,2.028,0,3.063
		c-0.751,0-1.503,0-2.278,0C17.448,14.859,17.448,13.861,17.448,12.805z"/>
	<path fill-rule="evenodd" clip-rule="evenodd" fill="#D71F26" d="M14.33,15.871c-0.809,0-1.559,0-2.352,0
		c0-0.964-0.006-1.907,0.011-2.851c0.001-0.081,0.15-0.227,0.235-0.229c0.622-0.02,1.244-0.02,1.866,0.001
		c0.083,0.002,0.228,0.154,0.229,0.239C14.336,13.964,14.33,14.896,14.33,15.871z"/>
</g>
</svg>
