<?xml version="1.0" encoding="utf-8"?>
<!-- Generator: Adobe Illustrator 16.0.0, SVG Export Plug-In . SVG Version: 6.00 Build 0)  -->
<!DOCTYPE svg PUBLIC "-//W3C//DTD SVG 1.1//EN" "http://www.w3.org/Graphics/SVG/1.1/DTD/svg11.dtd">
<svg version="1.1" id="Layer_1" xmlns:sketch="http://www.bohemiancoding.com/sketch/ns"
	 xmlns="http://www.w3.org/2000/svg" xmlns:xlink="http://www.w3.org/1999/xlink" x="0px" y="0px" width="40px" height="40px"
	 viewBox="0 0 40 40" enable-background="new 0 0 40 40" xml:space="preserve">
<title>Oval 61 + Menu Icon Copy 2</title>
<desc>Created with Sketch.</desc>
<circle id="Oval-61" fill="#D71F26" cx="20" cy="20" r="20"/>
<g id="Menu-Icon-Copy-2" transform="translate(12.000000, 8.000000)">
	<path id="Fill-1" fill="#FFFFFF" d="M5.714,24H2.428l-0.714-0.564V11.75C0.554,11.75,0,11.322,0,10V0.667h1.143V10
		c0,0.456,0.178,0.583,0.571,0.583c0.813,0,1.143,0.438,1.143,1.167c0,0.208,0,11.084,0,11.084h2.287V11.75
		c0-0.704,0.455-1.167,1.143-1.167c0.367,0,0.571-0.207,0.571-0.583V0.667H8V10c0,1.167-0.575,1.75-1.714,1.75
		c-0.001,1.146,0,11.666,0,11.666L5.714,24"/>
	<path id="Fill-2" fill="#FFFFFF" d="M3.333,0.667h1.333v8H3.333V0.667z"/>
	<path id="Fill-3" fill="#FFFFFF" d="M13.822,24h-3.276L10,23.413V2.732C10,0.751,10.631,0,12.1,0c3.89,0,4.976,10.579,2.78,13.402
		c-0.399,0.515-0.512,1.027-0.512,1.705v8.306L13.822,24L13.822,24z M13.275,22.826v-7.7c0-1.124,0.229-1.809,0.74-2.335
		c1.617-1.66,0.83-11.551-1.969-11.551c-0.784,0-0.955,0.721-0.955,1.932v19.654H13.275L13.275,22.826z"/>
</g>
</svg>
