<?xml version="1.0" encoding="utf-8"?>
<!-- Generator: Adobe Illustrator 16.0.0, SVG Export Plug-In . SVG Version: 6.00 Build 0)  -->
<!DOCTYPE svg PUBLIC "-//W3C//DTD SVG 1.1//EN" "http://www.w3.org/Graphics/SVG/1.1/DTD/svg11.dtd">
<svg version="1.1" id="Layer_1" xmlns:sketch="http://www.bohemiancoding.com/sketch/ns"
	 xmlns="http://www.w3.org/2000/svg" xmlns:xlink="http://www.w3.org/1999/xlink" x="0px" y="0px" width="40px" height="40px"
	 viewBox="0 0 40 40" enable-background="new 0 0 40 40" xml:space="preserve">
<title>Oval 61 + Menu Icon Copy 2</title>
<desc>Created with Sketch.</desc>
<g>
	<path fill-rule="evenodd" clip-rule="evenodd" fill="#D71F26" d="M39.814,19.992c0.006,10.916-8.912,19.83-19.826,19.822
		C9.066,39.806,0.164,30.885,0.185,19.97C0.206,9.048,9.064,0.196,19.982,0.187C30.92,0.177,39.811,9.055,39.814,19.992z
		 M22.459,10.411c-3.718,0-7.317,0-11.002,0c0,4.162,0,8.285,0,12.438c-0.124-0.044-0.163-0.051-0.194-0.07
		c-1.362-0.891-3.196-0.391-3.877,1.114c-0.635,1.401-0.172,3.212,1.561,3.867c0.159,0.061,0.318,0.347,0.328,0.536
		c0.036,0.774,0.015,1.552,0.015,2.358c0.371,0,0.668,0,1.049,0c0-0.797-0.013-1.573,0.01-2.351
		c0.005-0.175,0.083-0.415,0.213-0.507c0.254-0.178,0.567-0.272,0.941-0.439c0,1.127,0,2.182,0,3.246c6.438,0,12.803,0,19.248,0
		c0-1.746,0-3.448,0-5.247c0.318,0.243,0.535,0.409,0.775,0.593c0.232-0.278,0.434-0.519,0.652-0.78
		c-1.182-1.065-2.305-2.097-3.455-3.1c-0.291-0.253-0.4-0.514-0.387-0.886c0.021-0.696,0.006-1.394,0.006-2.092
		c-0.402,0-0.697,0-1.068,0c0,0.536,0,1.038,0,1.664c-1.152-1.03-2.203-1.966-3.32-2.964c-0.479,0.522-0.924,1.007-1.367,1.494
		c-0.043-0.019-0.086-0.038-0.127-0.056C22.459,16.303,22.459,13.375,22.459,10.411z"/>
	<path fill-rule="evenodd" clip-rule="evenodd" fill="#FFFFFF" d="M22.459,10.411c0,2.964,0,5.892,0,8.819
		c0.041,0.018,0.084,0.037,0.127,0.056c0.443-0.486,0.889-0.971,1.367-1.494c1.117,0.998,2.168,1.934,3.32,2.964
		c0-0.626,0-1.128,0-1.664c0.371,0,0.666,0,1.068,0c0,0.698,0.016,1.396-0.006,2.092c-0.014,0.372,0.096,0.633,0.387,0.886
		c1.15,1.003,2.273,2.034,3.455,3.1c-0.219,0.262-0.42,0.502-0.652,0.78c-0.24-0.184-0.457-0.35-0.775-0.593
		c0,1.799,0,3.501,0,5.247c-6.445,0-12.81,0-19.248,0c0-1.064,0-2.119,0-3.246c-0.374,0.167-0.687,0.262-0.941,0.439
		c-0.129,0.092-0.208,0.332-0.213,0.507c-0.023,0.777-0.01,1.554-0.01,2.351c-0.381,0-0.678,0-1.049,0
		c0-0.807,0.021-1.584-0.015-2.358c-0.009-0.189-0.169-0.476-0.328-0.536c-1.733-0.655-2.196-2.466-1.561-3.867
		c0.681-1.505,2.515-2.005,3.877-1.114c0.032,0.02,0.071,0.026,0.194,0.07c0-4.152,0-8.276,0-12.438
		C15.142,10.411,18.741,10.411,22.459,10.411z M21.361,29.534c0-6.041,0-12.043,0-18.066c-2.952,0-5.861,0-8.784,0
		c0,6.04,0,12.042,0,18.054c1.08,0,2.116,0,3.2,0c0-1.02,0.01-1.992-0.006-2.963c-0.005-0.343,0.111-0.486,0.463-0.47
		c0.438,0.019,0.88,0.033,1.315-0.005c0.493-0.042,0.619,0.164,0.604,0.625c-0.03,0.93-0.009,1.86-0.009,2.824
		C19.256,29.534,20.295,29.534,21.361,29.534z M24.109,19.359c-0.521,0.488-1.014,0.936-1.486,1.403
		c-0.096,0.096-0.164,0.267-0.164,0.404c-0.01,2.673-0.012,5.347,0.006,8.021c0,0.128,0.184,0.359,0.289,0.364
		c0.701,0.033,1.404,0.017,2.168,0.017c0-1.181,0-2.296,0-3.435c0.799,0,1.533,0,2.336,0c0,1.154,0,2.269,0,3.438
		c0.695,0,1.322-0.018,1.949,0.008c0.385,0.015,0.49-0.137,0.486-0.503c-0.016-1.432,0.012-2.864-0.023-4.295
		c-0.006-0.261-0.178-0.579-0.375-0.764c-1.102-1.028-2.234-2.025-3.359-3.031C25.314,20.429,24.688,19.875,24.109,19.359z
		 M9.796,23.426c-0.916,0.004-1.65,0.754-1.652,1.685c-0.002,0.917,0.748,1.695,1.646,1.708c0.907,0.012,1.707-0.81,1.687-1.731
		C11.456,24.154,10.714,23.421,9.796,23.426z"/>
	<path fill-rule="evenodd" clip-rule="evenodd" fill="#D71F26" d="M21.361,29.534c-1.066,0-2.105,0-3.217,0
		c0-0.964-0.021-1.895,0.009-2.824c0.015-0.461-0.11-0.667-0.604-0.625c-0.436,0.038-0.878,0.023-1.315,0.005
		c-0.352-0.017-0.468,0.127-0.463,0.47c0.016,0.971,0.006,1.943,0.006,2.963c-1.084,0-2.12,0-3.2,0c0-6.013,0-12.015,0-18.054
		c2.923,0,5.833,0,8.784,0C21.361,17.491,21.361,23.493,21.361,29.534z M17.97,20.988c0,0.674,0,1.314,0,1.966
		c0.524,0,1.01,0,1.557,0c0-0.281,0-0.524,0-0.77C19.529,20.74,19.49,20.71,17.97,20.988z M17.976,17.139c0,0.718,0,1.373,0,2.025
		c0.529,0,1.012,0,1.505,0c0-0.699,0-1.354,0-2.025C18.961,17.139,18.49,17.139,17.976,17.139z M17.931,13.359
		c0,0.365,0,0.667,0,0.967c0,1.131,0,1.131,1.144,1.075c0.077-0.003,0.168,0.019,0.225-0.017c0.086-0.052,0.207-0.143,0.209-0.22
		c0.017-0.598,0.009-1.196,0.009-1.805C18.955,13.359,18.485,13.359,17.931,13.359z M14.521,13.358c0,0.701,0,1.339,0,2.003
		c0.5,0,0.964,0,1.44,0c0-0.692,0-1.344,0-2.003C15.463,13.358,15.012,13.358,14.521,13.358z M15.976,20.964
		c-0.535,0-0.997,0-1.443,0c0,0.702,0,1.354,0,1.985c0.513,0,0.977,0,1.443,0C15.976,22.266,15.976,21.628,15.976,20.964z
		 M14.507,19.168c0.522,0,0.988,0,1.458,0c0-0.696,0-1.353,0-2.013c-0.505,0-0.971,0-1.458,0
		C14.507,17.837,14.507,18.479,14.507,19.168z"/>
	<path fill-rule="evenodd" clip-rule="evenodd" fill="#D71F26" d="M24.109,19.359c0.578,0.515,1.205,1.069,1.826,1.627
		c1.125,1.006,2.258,2.003,3.359,3.031c0.197,0.185,0.369,0.503,0.375,0.764c0.035,1.431,0.008,2.863,0.023,4.295
		c0.004,0.366-0.102,0.518-0.486,0.503c-0.627-0.025-1.254-0.008-1.949-0.008c0-1.169,0-2.283,0-3.438c-0.803,0-1.537,0-2.336,0
		c0,1.139,0,2.254,0,3.435c-0.764,0-1.467,0.017-2.168-0.017c-0.105-0.005-0.289-0.236-0.289-0.364
		c-0.018-2.674-0.016-5.348-0.006-8.021c0-0.138,0.068-0.309,0.164-0.404C23.096,20.295,23.588,19.848,24.109,19.359z"/>
	<path fill-rule="evenodd" clip-rule="evenodd" fill="#D71F26" d="M9.796,23.426c0.917-0.005,1.659,0.729,1.68,1.661
		c0.021,0.922-0.78,1.743-1.687,1.731c-0.898-0.013-1.648-0.791-1.646-1.708C8.146,24.18,8.881,23.43,9.796,23.426z"/>
	<path fill-rule="evenodd" clip-rule="evenodd" fill="#FFFFFF" d="M17.97,20.988c1.52-0.278,1.559-0.248,1.557,1.196
		c0,0.245,0,0.488,0,0.77c-0.547,0-1.033,0-1.557,0C17.97,22.303,17.97,21.662,17.97,20.988z"/>
	<path fill-rule="evenodd" clip-rule="evenodd" fill="#FFFFFF" d="M17.976,17.139c0.514,0,0.986,0,1.505,0c0,0.671,0,1.326,0,2.025
		c-0.493,0-0.976,0-1.505,0C17.976,18.512,17.976,17.856,17.976,17.139z"/>
	<path fill-rule="evenodd" clip-rule="evenodd" fill="#FFFFFF" d="M17.931,13.359c0.554,0,1.023,0,1.586,0
		c0,0.609,0.008,1.208-0.009,1.805c-0.002,0.077-0.123,0.167-0.209,0.22c-0.057,0.035-0.147,0.013-0.225,0.017
		c-1.144,0.057-1.144,0.057-1.144-1.075C17.931,14.025,17.931,13.724,17.931,13.359z"/>
	<path fill-rule="evenodd" clip-rule="evenodd" fill="#FFFFFF" d="M14.521,13.358c0.491,0,0.943,0,1.44,0c0,0.659,0,1.311,0,2.003
		c-0.476,0-0.94,0-1.44,0C14.521,14.697,14.521,14.06,14.521,13.358z"/>
	<path fill-rule="evenodd" clip-rule="evenodd" fill="#FFFFFF" d="M15.976,20.964c0,0.664,0,1.302,0,1.985c-0.466,0-0.93,0-1.443,0
		c0-0.631,0-1.283,0-1.985C14.979,20.964,15.441,20.964,15.976,20.964z"/>
	<path fill-rule="evenodd" clip-rule="evenodd" fill="#FFFFFF" d="M14.507,19.168c0-0.689,0-1.332,0-2.013c0.487,0,0.953,0,1.458,0
		c0,0.66,0,1.316,0,2.013C15.496,19.168,15.03,19.168,14.507,19.168z"/>
</g>
</svg>
