<?xml version="1.0" encoding="UTF-8" standalone="no"?>
<svg width="15px" height="15px" viewBox="0 0 15 15" version="1.1" xmlns="http://www.w3.org/2000/svg" xmlns:xlink="http://www.w3.org/1999/xlink" xmlns:sketch="http://www.bohemiancoding.com/sketch/ns">
    <!-- Generator: Sketch 3.5.2 (25235) - http://www.bohemiancoding.com/sketch -->
    <title>Shape</title>
    <desc>Created with Sketch.</desc>
    <defs></defs>
    <g id="Page-1" stroke="none" stroke-width="1" fill="none" fill-rule="evenodd" sketch:type="MSPage">
        <g id="Venue_Page_Responsive_Boot4_1440" sketch:type="MSArtboardGroup" transform="translate(-262.000000, -1103.000000)" fill="#AC9456">
            <g id="Map-Content" sketch:type="MSLayerGroup" transform="translate(216.000000, 1003.000000)">
                <g id="Group-2" transform="translate(46.000000, 100.000000)" sketch:type="MSShapeGroup">
                    <path d="M14.5833333,0 L14.45,0.025 L10,1.75 L5,0 L0.3,1.58333333 C0.125,1.64166667 0,1.79166667 0,1.98333333 L0,14.5833333 C0,14.8166667 0.183333333,15 0.416666667,15 L0.55,14.975 L5,13.25 L10,15 L14.7,13.4166667 C14.875,13.3583333 15,13.2083333 15,13.0166667 L15,0.416666667 C15,0.183333333 14.8166667,0 14.5833333,0 L14.5833333,0 Z M10,13.3333333 L5,11.575 L5,1.66666667 L10,3.425 L10,13.3333333 L10,13.3333333 Z" id="Shape"></path>
                </g>
            </g>
        </g>
    </g>
</svg>