<?xml version="1.0" encoding="UTF-8" standalone="no"?>
<svg width="17px" height="16px" viewBox="0 0 17 16" version="1.1" xmlns="http://www.w3.org/2000/svg" xmlns:xlink="http://www.w3.org/1999/xlink" xmlns:sketch="http://www.bohemiancoding.com/sketch/ns">
    <!-- Generator: Sketch 3.5.2 (25235) - http://www.bohemiancoding.com/sketch -->
    <title>Imported Layers Copy 5</title>
    <desc>Created with Sketch.</desc>
    <defs>
        <path d="M5.65478892,97.2923531 C4.51795421,98.4145959 2.67520383,98.414259 1.53802794,97.2913424 C0.401193228,96.1687627 0.400852041,94.3484451 1.53734556,93.2265391 L4.59403889,90.2081743 C5.73053241,89.0855945 7.57362397,89.0862684 8.71079987,90.2085112 C9.32357152,90.8135992 9.60300358,91.6215062 9.5555786,92.4132416 C9.68522962,92.330362 9.80839808,92.2340062 9.92201332,92.1218156 L10.2212342,91.8263467 C10.1301373,91.0608901 9.78997399,90.3183434 9.19494406,89.7307747 C7.79061883,88.3433847 5.51353755,88.3430478 4.10955351,89.7297639 L1.05286018,92.7481288 C-0.351465045,94.134508 -0.350782671,96.3826997 1.05388374,97.7697527 C2.45820897,99.1564689 4.73529026,99.1568058 6.1392743,97.7704265 L9.19596762,94.7520617 C9.21439171,94.7338686 9.22974512,94.7143279 9.24714565,94.6957979 C8.90049978,94.7689071 8.54668898,94.7978812 8.19321936,94.7854156 L5.65478892,97.2923531 L5.65478892,97.2923531 Z M13.9483598,85.0406689 C12.5436934,83.6536159 10.2669533,83.652942 8.86262803,85.0396582 L5.80593471,88.0580231 C5.7878518,88.0758792 5.77249839,88.0957568 5.75475668,88.1142868 C6.10174374,88.0411776 6.45555454,88.0122035 6.80868297,88.0246691 L9.34711341,85.5180685 C10.4836069,84.3954888 12.3270397,84.3958257 13.4642156,85.5184054 C14.6010503,86.641322 14.6013915,88.4613027 13.464898,89.5835456 L10.4082046,92.6019104 C9.27171111,93.7244902 7.42827836,93.7238164 6.29110246,92.6012366 C5.67833081,91.9961486 5.39889875,91.1885785 5.44666492,90.3965062 C5.3170139,90.4793858 5.19350425,90.5757416 5.07988901,90.6879322 L4.7810093,90.9834011 C4.87176501,91.7495315 5.21192834,92.4920782 5.80695827,93.07931 C7.21162469,94.4663631 9.48836478,94.4667 10.89269,93.0803208 L13.9490421,90.0619559 C15.3533674,88.6755767 15.352685,86.427385 13.9483598,85.0406689 L13.9483598,85.0406689 Z" id="path-1"></path>
    </defs>
    <g id="Page-1" stroke="none" stroke-width="1" fill="none" fill-rule="evenodd" sketch:type="MSPage">
        <g id="Venue_Page_Responsive_Boot4_1440" sketch:type="MSArtboardGroup" transform="translate(-829.000000, -1325.000000)">
            <g id="Venue-Content" sketch:type="MSLayerGroup" transform="translate(260.000000, 1219.000000)">
                <g id="Group-4" transform="translate(570.000000, 23.000000)">
                    <g id="Imported-Layers-Copy-5">
                        <use stroke="none" fill="#7C7C7C" fill-rule="evenodd" sketch:type="MSShapeGroup" xlink:href="#path-1"></use>
                        <use stroke="#7C7C7C" stroke-width="0.15" fill="none" xlink:href="#path-1"></use>
                    </g>
                </g>
            </g>
        </g>
    </g>
</svg>