<?xml version="1.0" encoding="utf-8"?>
<!-- Generator: Adobe Illustrator 16.0.0, SVG Export Plug-In . SVG Version: 6.00 Build 0)  -->
<!DOCTYPE svg PUBLIC "-//W3C//DTD SVG 1.1//EN" "http://www.w3.org/Graphics/SVG/1.1/DTD/svg11.dtd">
<svg version="1.1" id="Layer_1" xmlns="http://www.w3.org/2000/svg" xmlns:xlink="http://www.w3.org/1999/xlink" x="0px" y="0px"
	 width="31.125px" height="32.375px" viewBox="71.839 65.839 31.125 32.375" enable-background="new 71.839 65.839 31.125 32.375"
	 xml:space="preserve">
<g>
	<g>
		<path fill="#D71F26" d="M87.402,96.442c-7.95,0-14.417-6.467-14.417-14.416c0-7.95,6.467-14.417,14.417-14.417
			c7.949,0,14.417,6.467,14.417,14.417C101.819,89.976,95.351,96.442,87.402,96.442z M87.402,69.682
			c-6.807,0-12.345,5.538-12.345,12.345c0,6.806,5.538,12.345,12.345,12.345c6.807,0,12.345-5.539,12.345-12.345
			C99.746,75.22,94.208,69.682,87.402,69.682z"/>
	</g>
	<path fill="#D71F26" d="M92.466,83.964h-6.082V74.96c0-0.543-0.44-0.983-0.983-0.983s-0.984,0.44-0.984,0.983v9.988
		c0,0.52,0.404,0.945,0.917,0.979c0.001,0.002,0.003,0.002,0.003,0.004h7.13c0.544,0,0.984-0.439,0.984-0.982
		C93.45,84.403,93.01,83.964,92.466,83.964z"/>
</g>
</svg>
