<?xml version="1.0" encoding="utf-8"?>
<!-- Generator: Adobe Illustrator 16.0.0, SVG Export Plug-In . SVG Version: 6.00 Build 0)  -->
<!DOCTYPE svg PUBLIC "-//W3C//DTD SVG 1.1//EN" "http://www.w3.org/Graphics/SVG/1.1/DTD/svg11.dtd">
<svg version="1.1" id="Layer_1" xmlns="http://www.w3.org/2000/svg" xmlns:xlink="http://www.w3.org/1999/xlink" x="0px" y="0px"
	 width="147px" height="47px" viewBox="0 0 147 47" enable-background="new 0 0 147 47" xml:space="preserve">
<g>
	<path fill="#1C75BC" d="M23.651,4.05c-1.042-1.023-2.287-1.819-3.731-2.387c-1.443-0.567-3.063-0.85-4.855-0.85L3.542,0.868
		c-0.475,0-0.878,0.165-1.206,0.493C2.007,1.69,1.842,2.093,1.842,2.568v31.987c0,0.476,0.165,0.878,0.494,1.207
		c0.328,0.33,0.731,0.494,1.206,0.494H15.12c1.79,0,3.409-0.283,4.855-0.85c1.444-0.566,2.679-1.362,3.703-2.387
		c1.023-1.023,1.819-2.258,2.388-3.703c0.566-1.445,0.851-3.045,0.851-4.801V12.554c0-1.756-0.284-3.356-0.851-4.801
		C25.498,6.309,24.693,5.074,23.651,4.05z M23.514,24.516c0,2.597-0.739,4.636-2.221,6.117c-1.482,1.482-3.54,2.223-6.173,2.223
		H5.243V4.214h9.821c2.707,0,4.791,0.74,6.256,2.222c1.462,1.481,2.193,3.521,2.193,6.118V24.516z"/>
	<path fill="#1C75BC" d="M44.583,11.292c0-0.474-0.175-0.877-0.522-1.207c-0.347-0.329-0.813-0.494-1.397-0.494
		c-1.793,0.037-3.476,0.403-5.049,1.098c-1.572,0.695-2.953,1.646-4.142,2.853c-1.189,1.207-2.122,2.606-2.8,4.197
		c-0.676,1.592-1.015,3.284-1.015,5.075v11.742c0,0.476,0.165,0.878,0.495,1.207c0.329,0.33,0.73,0.494,1.208,0.494
		c0.474,0,0.878-0.164,1.206-0.494c0.329-0.329,0.494-0.731,0.494-1.207V22.814c0-1.317,0.246-2.569,0.741-3.758
		c0.492-1.188,1.178-2.222,2.056-3.1c0.878-0.878,1.902-1.582,3.073-2.112c1.17-0.53,2.414-0.814,3.731-0.85
		c0.584,0,1.051-0.165,1.397-0.494C44.408,12.17,44.583,11.768,44.583,11.292z"/>
	<path fill="#1C75BC" d="M69.327,23.034c0-1.829-0.356-3.548-1.069-5.157c-0.037-0.083-0.082-0.159-0.118-0.24
		c-0.142-0.31-0.292-0.613-0.454-0.911c-0.005-0.009-0.01-0.018-0.015-0.027c-0.046-0.084-0.088-0.17-0.136-0.253h-0.021
		c-0.598-1.025-1.305-1.961-2.138-2.793c-1.207-1.208-2.605-2.167-4.197-2.881c-1.591-0.713-3.265-1.07-5.02-1.07
		c-1.903,0.074-3.669,0.467-5.296,1.18c-1.627,0.713-3.036,1.666-4.224,2.853c-0.809,0.809-1.489,1.717-2.061,2.712h-0.03
		c-0.271,0.461-0.523,0.935-0.744,1.435c-0.51,1.15-0.829,2.359-0.978,3.619h-0.005c-0.017,0.141-0.028,0.282-0.04,0.423
		c-0.001,0.031-0.001,0.063-0.002,0.093c-0.003,0.043-0.006,0.087-0.009,0.131c-0.017,0.246-0.034,0.49-0.038,0.74
		c-0.001,0.06-0.004,0.119-0.004,0.179c0,0.276,0.022,0.546,0.039,0.817c0.039,0.62,0.104,1.231,0.227,1.825
		c0.174,0.845,0.436,1.666,0.782,2.46c0.301,0.692,0.666,1.335,1.062,1.954c0.111,0.178,0.22,0.357,0.339,0.528
		c0.027,0.04,0.051,0.083,0.078,0.122c0.041,0.056,0.239,0.338,0.529,0.749c0.985,1.394,3.072,4.344,4.016,5.614
		c2.027,2.729,4.148,5.391,6.316,8.192c2.62-3.407,5.127-6.708,7.684-9.975c0.868-1.11,1.688-2.248,2.431-3.434
		c0.181-0.287,1.669-2.578,2.092-3.558c0.565-1.312,0.867-2.803,0.974-4.308C69.307,23.994,69.327,23.241,69.327,23.034z
		 M52.236,13.926c1.188-0.512,2.459-0.769,3.813-0.769c1.353,0,2.634,0.256,3.841,0.769s2.258,1.216,3.155,2.112
		c0.131,0.131,0.247,0.271,0.37,0.407h-0.058c0.088,0.102,0.183,0.196,0.268,0.3c1.237,1.489,2.042,3.346,2.234,5.382
		c0.02,0.143,0.027,0.291,0.044,0.435c0.007,0.158,0.022,0.312,0.022,0.471c0,1.354-0.257,2.625-0.769,3.813
		c-0.512,1.189-1.216,2.232-2.112,3.127c-0.897,0.897-1.948,1.601-3.155,2.113c-1.207,0.513-2.488,0.769-3.841,0.769
		c-1.354,0-2.625-0.256-3.813-0.769c-1.189-0.512-2.23-1.216-3.127-2.113c-0.897-0.896-1.602-1.938-2.113-3.127
		c-0.512-1.188-0.768-2.459-0.768-3.813c0-1.353,0.256-2.634,0.768-3.84c0.512-1.208,1.216-2.258,2.113-3.155
		C50.006,15.143,51.047,14.438,52.236,13.926z"/>
	<path fill="#1C75BC" d="M94.757,13.652c-1.188-1.208-2.587-2.159-4.195-2.854c-1.611-0.694-3.348-1.042-5.213-1.042
		c-1.829,0-3.54,0.329-5.131,0.988c-1.591,0.658-2.99,1.573-4.196,2.744c-1.208,1.17-2.159,2.561-2.854,4.169
		c-0.694,1.61-1.041,3.366-1.041,5.268v21.563c0,0.475,0.165,0.878,0.492,1.207c0.33,0.329,0.732,0.493,1.208,0.493
		s0.878-0.165,1.206-0.493c0.33-0.329,0.495-0.732,0.495-1.207V31.264c1.208,1.316,2.651,2.46,4.335,3.429
		c1.681,0.97,3.546,1.491,5.596,1.563c1.756,0,3.429-0.356,5.021-1.069c1.591-0.713,2.99-1.674,4.197-2.881
		c1.208-1.207,2.167-2.615,2.881-4.225c0.713-1.609,1.068-3.328,1.068-5.157c0-1.792-0.347-3.484-1.041-5.076
		C96.889,16.258,95.946,14.858,94.757,13.652z M94.456,26.764c-0.513,1.207-1.217,2.26-2.112,3.155
		c-0.896,0.897-1.947,1.601-3.155,2.113c-1.207,0.512-2.486,0.768-3.84,0.768c-1.316,0-2.561-0.247-3.73-0.741
		c-1.171-0.495-2.195-1.18-3.073-2.058c-0.878-0.878-1.591-1.92-2.14-3.126c-0.548-1.208-0.843-2.524-0.878-3.951
		c0-1.353,0.255-2.625,0.769-3.813c0.511-1.188,1.215-2.231,2.112-3.127c0.896-0.896,1.938-1.6,3.127-2.112
		c1.188-0.513,2.459-0.769,3.813-0.769c1.354,0,2.633,0.256,3.84,0.769c1.208,0.512,2.26,1.215,3.155,2.112s1.6,1.939,2.112,3.127
		c0.512,1.189,0.769,2.46,0.769,3.813C95.225,24.278,94.968,25.558,94.456,26.764z"/>
	<g>
		<path fill="#D81F26" d="M113.994,1.471c-0.623,0-1.152,0.22-1.591,0.659c-0.439,0.439-0.659,0.97-0.659,1.591
			c0,0.623,0.22,1.152,0.659,1.591c0.438,0.438,0.968,0.658,1.591,0.658c0.622,0,1.152-0.22,1.592-0.658
			c0.438-0.439,0.657-0.969,0.657-1.591c0-0.622-0.219-1.152-0.657-1.591C115.146,1.69,114.616,1.471,113.994,1.471z"/>
		<path fill="#D81F26" d="M113.994,9.646c-0.476,0-0.879,0.165-1.207,0.494c-0.33,0.33-0.494,0.733-0.494,1.208v23.208
			c0,0.476,0.164,0.878,0.494,1.207c0.328,0.33,0.731,0.494,1.207,0.494c0.475,0,0.878-0.164,1.206-0.494
			c0.329-0.329,0.495-0.731,0.495-1.207V11.347c0-0.475-0.166-0.878-0.495-1.208C114.872,9.811,114.469,9.646,113.994,9.646z"/>
		<path fill="#D81F26" d="M144.116,17.657c-0.696-1.609-1.639-3.008-2.827-4.197c-1.188-1.188-2.588-2.13-4.196-2.825
			c-1.61-0.695-3.329-1.043-5.157-1.043c-1.831,0-3.55,0.348-5.158,1.043c-1.609,0.695-3.01,1.637-4.197,2.825
			c-1.189,1.189-2.131,2.588-2.826,4.197c-0.694,1.61-1.043,3.329-1.043,5.157v11.742c0,0.476,0.166,0.878,0.494,1.207
			c0.331,0.33,0.732,0.494,1.208,0.494s0.878-0.164,1.206-0.494c0.33-0.329,0.495-0.731,0.495-1.207V22.814
			c0-1.353,0.254-2.625,0.768-3.813c0.512-1.188,1.216-2.231,2.112-3.127c0.896-0.896,1.938-1.6,3.127-2.113
			c1.188-0.512,2.46-0.768,3.814-0.768c1.352,0,2.623,0.256,3.813,0.768c1.188,0.513,2.23,1.216,3.127,2.113
			c0.896,0.896,1.6,1.938,2.113,3.127c0.512,1.188,0.768,2.46,0.768,3.813v11.742c0,0.476,0.165,0.878,0.494,1.207
			c0.33,0.33,0.731,0.494,1.207,0.494c0.475,0,0.877-0.164,1.207-0.494c0.329-0.329,0.494-0.731,0.494-1.207V22.814
			C145.158,20.985,144.81,19.267,144.116,17.657z"/>
	</g>
	<circle fill="#D81F26" cx="56" cy="23.069" r="5.623"/>
</g>
</svg>
