<?xml version="1.0" ?><!DOCTYPE svg  PUBLIC '-//W3C//DTD SVG 1.1//EN'  'http://www.w3.org/Graphics/SVG/1.1/DTD/svg11.dtd'><svg enable-background="new 0 0 256 256" height="256px" id="Layer_1" version="1.1" viewBox="0 0 256 256" width="256px" xml:space="preserve" xmlns="http://www.w3.org/2000/svg" xmlns:xlink="http://www.w3.org/1999/xlink"><path d="M178.666,134.4H77.331c-3.534,0-6.4-2.866-6.4-6.4s2.866-6.4,6.4-6.4h101.335c3.533,0,6.399,2.866,6.399,6.4  S182.199,134.4,178.666,134.4z M256,128C256,57.42,198.58,0,128,0C57.42,0,0,57.42,0,128c0,70.58,57.42,128,128,128  C198.58,256,256,198.58,256,128z M243.199,128c0,63.521-51.678,115.2-115.199,115.2c-63.522,0-115.2-51.679-115.2-115.2  C12.8,64.478,64.478,12.8,128,12.8C191.521,12.8,243.199,64.478,243.199,128z"/></svg>