<?xml version="1.0" ?><svg style="enable-background:new 0 0 128 128;" version="1.1" viewBox="0 0 128 128" xml:space="preserve" xmlns="http://www.w3.org/2000/svg" xmlns:xlink="http://www.w3.org/1999/xlink"><g id="Layer_1"/><g id="refrigerator"/><g id="washer"/><g id="tv"/><g id="microwawe"/><g id="vacuum_cleaner"/><g id="Gift"/><g id="umbrella"/><g id="rocket"/><g id="basket"/><g id="shopping"><g><g><path d="M92.11,119.147c-6.313,0-11.449-5.136-11.449-11.449s5.136-11.449,11.449-11.449     s11.45,5.136,11.45,11.449S98.424,119.147,92.11,119.147z M92.11,100.249c-4.107,0-7.449,3.342-7.449,7.449     s3.342,7.449,7.449,7.449c4.108,0,7.45-3.342,7.45-7.449S96.219,100.249,92.11,100.249z" style="fill:#505070;"/></g><g><path d="M46.753,119.147c-6.313,0-11.449-5.136-11.449-11.449s5.136-11.449,11.449-11.449     s11.449,5.136,11.449,11.449S53.066,119.147,46.753,119.147z M46.753,100.249c-4.107,0-7.449,3.342-7.449,7.449     s3.342,7.449,7.449,7.449s7.449-3.342,7.449-7.449S50.86,100.249,46.753,100.249z" style="fill:#505070;"/></g><g><path d="M96.625,91.147c-0.002,0-0.004,0-0.006,0l-54.755-0.021c-4.57-0.003-8.516-3.261-9.382-7.747     L22.351,29.434c-0.109-0.585,0.047-1.188,0.427-1.646s0.944-0.723,1.539-0.723h94.649c1.907,0,3.689,0.939,4.768,2.513     s1.311,3.575,0.622,5.354l-18.81,50.09C104.124,88.693,100.542,91.147,96.625,91.147z M26.727,31.064l9.686,51.566     c0.502,2.599,2.796,4.494,5.454,4.495l54.755,0.021c0.001,0,0.002,0,0.003,0c2.278,0,4.361-1.427,5.185-3.553l18.81-50.089     c0.223-0.575,0.152-1.176-0.185-1.668c-0.337-0.491-0.872-0.773-1.468-0.773H26.727z" style="fill:#505070;"/></g><g><path d="M24.314,31.064c-0.907,0-1.729-0.621-1.945-1.542l-2.408-10.236C19.367,16.763,17.142,15,14.55,15     H5.417c-1.104,0-2-0.896-2-2s0.896-2,2-2h9.133c4.457,0,8.284,3.031,9.306,7.37l2.408,10.236     c0.253,1.075-0.414,2.152-1.489,2.405C24.62,31.048,24.466,31.064,24.314,31.064z" style="fill:#505070;"/></g><g><path d="M60,44H27.151c-1.104,0-2-0.896-2-2s0.896-2,2-2H60c1.104,0,2,0.896,2,2S61.104,44,60,44z" style="fill:#505070;"/></g></g></g><g id="email"/><g id="message"/><g id="delivery"/><g id="store"/><g id="label"/><g id="phone"/><g id="imac"/><g id="laptop"/><g id="heart_like"/><g id="game"/><g id="wallet"/><g id="camera"/><g id="battery"/><g id="shoes"/><g id="t-shirt"/><g id="pencil"/><g id="people"/><g id="statistics"/><g id="blog"/><g id="rock"/><g id="like"/><g id="dislike"/><g id="speaker"/><g id="pc"/><g id="glasses"/><g id="headphones"/><g id="player"/><g id="book"/><g id="transfer"/><g id="mouse"/><g id="package"/><g id="exellent"/><g id="card"/><g id="induction"/><g id="revers_camera"/><g id="flesh_drive"/><g id="time"/><g id="sale"/><g id="tablet"/><g id="search"/></svg>